{"accessors" : [{"bufferView" : 0, "byteOffset" : 0, "componentType" : 5123, "count" : 29400, "type" : "SCALAR", "max" : [24598], "min" : [0]}, {"bufferView" : 1, "byteOffset" : 0, "componentType" : 5126, "count" : 24599, "type" : "VEC3", "max" : [62.09090042114258, 61.90595626831055, 19.417640686035156], "min" : [-60.96263122558594, -61.23013687133789, -19.491172790527344], "name" : "POSITION"}, {"bufferView" : 1, "byteOffset" : 12, "componentType" : 5126, "count" : 24599, "type" : "VEC2", "max" : [1.000000238418579, 2.384185791015625E-07], "min" : [0, -1], "name" : "TEXCOORD_0"}, {"bufferView" : 1, "byteOffset" : 20, "componentType" : 5126, "count" : 24599, "type" : "VEC3", "max" : [0.9994203448295593, 0.9998556971549988, 0.9999323487281799], "min" : [-0.9995498061180115, -0.9999209642410278, -0.999995231628418], "name" : "NORMAL"}], "asset" : {"generator" : "Aspose.3D 22.3", "version" : "2.0"}, "buffers" : [{"uri" : "data:application/octet-stream;base64,", "byteLength" : 999608}], "bufferViews" : [{"buffer" : 0, "byteOffset" : 0, "byteLength" : 58800, "target" : 34963}, {"buffer" : 0, "byteOffset" : 58804, "byteLength" : 940800, "byteStride" : 32, "target" : 34962}], "meshes" : [{"primitives" : [{"attributes" : {"POSITION" : 1, "TEXCOORD_0" : 2, "NORMAL" : 3}, "indices" : 0, "mode" : 4}], "name" : ""}], "nodes" : [{"mesh" : 0, "name" : "Sphere01"}], "scene" : 0, "scenes" : [{"nodes" : [0]}]}